<mxfile host="Electron" agent="Mozilla/5.0 (Windows NT 10.0; Win64; x64) AppleWebKit/537.36 (KHTML, like Gecko) draw.io/27.0.9 Chrome/134.0.6998.205 Electron/35.4.0 Safari/537.36" version="27.0.9" pages="7">
  <diagram name="Case-1" id="qSFT5Q37zo8Qzmo0bJ_i">
    <mxGraphModel dx="1310" dy="860" grid="1" gridSize="10" guides="1" tooltips="1" connect="1" arrows="1" fold="1" page="1" pageScale="1" pageWidth="1169" pageHeight="827" math="0" shadow="0">
      <root>
        <mxCell id="0" />
        <mxCell id="1" parent="0" />
        <mxCell id="XCQNa3WlRcHzMT_XAqFe-12" value="" style="rounded=1;arcSize=10;dashed=0;fillColor=none;gradientColor=none;strokeWidth=2;" parent="1" vertex="1">
          <mxGeometry x="240" y="160" width="680" height="520" as="geometry" />
        </mxCell>
        <mxCell id="XCQNa3WlRcHzMT_XAqFe-13" value="" style="dashed=0;html=1;shape=mxgraph.aws3.cloud;fillColor=#F58536;gradientColor=none;dashed=0;" parent="1" vertex="1">
          <mxGeometry x="260" y="140" width="52" height="36" as="geometry" />
        </mxCell>
        <mxCell id="XCQNa3WlRcHzMT_XAqFe-16" value="Región 1" style="rounded=1;arcSize=10;dashed=1;fillColor=none;gradientColor=none;dashPattern=1 1;strokeWidth=2;labelPosition=center;verticalLabelPosition=bottom;align=center;verticalAlign=top;" parent="1" vertex="1">
          <mxGeometry x="280" y="200" width="600" height="440" as="geometry" />
        </mxCell>
        <mxCell id="XCQNa3WlRcHzMT_XAqFe-17" value="zone 1" style="rounded=1;arcSize=10;dashed=1;strokeColor=#F59D56;fillColor=none;gradientColor=none;dashPattern=8 4;strokeWidth=2;labelPosition=center;verticalLabelPosition=bottom;align=center;verticalAlign=top;" parent="1" vertex="1">
          <mxGeometry x="320" y="240" width="520" height="360" as="geometry" />
        </mxCell>
        <mxCell id="XCQNa3WlRcHzMT_XAqFe-18" value="" style="rounded=1;arcSize=10;dashed=0;fillColor=none;gradientColor=none;strokeWidth=2;" parent="1" vertex="1">
          <mxGeometry x="360" y="280" width="440" height="280" as="geometry" />
        </mxCell>
        <mxCell id="XCQNa3WlRcHzMT_XAqFe-19" value="" style="dashed=0;html=1;shape=mxgraph.aws3.virtual_private_cloud;fillColor=#F58536;gradientColor=none;dashed=0;" parent="1" vertex="1">
          <mxGeometry x="380" y="260" width="52" height="36" as="geometry" />
        </mxCell>
        <mxCell id="XCQNa3WlRcHzMT_XAqFe-20" value="Grupo de Seguridad 1" style="rounded=1;arcSize=10;dashed=1;strokeColor=#ff0000;fillColor=none;gradientColor=none;dashPattern=8 4;strokeWidth=2;labelPosition=center;verticalLabelPosition=bottom;align=center;verticalAlign=top;" parent="1" vertex="1">
          <mxGeometry x="400" y="321" width="360" height="199" as="geometry" />
        </mxCell>
        <mxCell id="XCQNa3WlRcHzMT_XAqFe-21" value="EC2 instance 1 - T2" style="outlineConnect=0;dashed=0;verticalLabelPosition=bottom;verticalAlign=top;align=center;html=1;shape=mxgraph.aws3.instance;fillColor=#F58534;gradientColor=none;" parent="1" vertex="1">
          <mxGeometry x="520" y="360" width="80" height="80" as="geometry" />
        </mxCell>
        <mxCell id="XCQNa3WlRcHzMT_XAqFe-29" value="what time is it?" style="endArrow=classic;html=1;rounded=0;labelPosition=center;verticalLabelPosition=top;align=center;verticalAlign=bottom;fontSize=16;" parent="1" edge="1">
          <mxGeometry x="-0.6944" y="7" width="50" height="50" relative="1" as="geometry">
            <mxPoint x="97" y="401.66666666666697" as="sourcePoint" />
            <mxPoint x="517" y="401.66666666666697" as="targetPoint" />
            <mxPoint as="offset" />
          </mxGeometry>
        </mxCell>
        <mxCell id="XCQNa3WlRcHzMT_XAqFe-30" value="the hour is 8 am" style="endArrow=none;html=1;rounded=0;startArrow=classicThin;startFill=1;labelPosition=center;verticalLabelPosition=bottom;align=center;verticalAlign=top;fontSize=16;" parent="1" edge="1">
          <mxGeometry x="-0.6697" y="-3" width="50" height="50" relative="1" as="geometry">
            <mxPoint x="99" y="424.6666666666665" as="sourcePoint" />
            <mxPoint x="515" y="424.6666666666665" as="targetPoint" />
            <mxPoint x="-1" as="offset" />
          </mxGeometry>
        </mxCell>
        <mxCell id="XCQNa3WlRcHzMT_XAqFe-31" value="" style="outlineConnect=0;dashed=0;verticalLabelPosition=bottom;verticalAlign=top;align=center;html=1;shape=mxgraph.aws3.user;fillColor=#D2D3D3;gradientColor=none;" parent="1" vertex="1">
          <mxGeometry x="42" y="378" width="45" height="63" as="geometry" />
        </mxCell>
        <mxCell id="cBCuGvm1B5v4dCd9RyFX-1" value="Caso en el que tenemos pocos usuarios" style="text;html=1;align=center;verticalAlign=middle;whiteSpace=wrap;rounded=0;fontSize=20;" vertex="1" parent="1">
          <mxGeometry x="410" y="100" width="270" height="30" as="geometry" />
        </mxCell>
      </root>
    </mxGraphModel>
  </diagram>
  <diagram name="Case-2" id="5RWP4ORx7z49I5TBGyTr">
    <mxGraphModel dx="1572" dy="1032" grid="1" gridSize="10" guides="1" tooltips="1" connect="1" arrows="1" fold="1" page="1" pageScale="1" pageWidth="1169" pageHeight="827" math="0" shadow="0">
      <root>
        <mxCell id="RaUBzGo_gXqJ1IEt7aU4-0" />
        <mxCell id="RaUBzGo_gXqJ1IEt7aU4-1" parent="RaUBzGo_gXqJ1IEt7aU4-0" />
        <mxCell id="RaUBzGo_gXqJ1IEt7aU4-2" value="" style="rounded=1;arcSize=10;dashed=0;fillColor=none;gradientColor=none;strokeWidth=2;" vertex="1" parent="RaUBzGo_gXqJ1IEt7aU4-1">
          <mxGeometry x="359" y="160" width="680" height="520" as="geometry" />
        </mxCell>
        <mxCell id="RaUBzGo_gXqJ1IEt7aU4-3" value="" style="dashed=0;html=1;shape=mxgraph.aws3.cloud;fillColor=#F58536;gradientColor=none;dashed=0;" vertex="1" parent="RaUBzGo_gXqJ1IEt7aU4-1">
          <mxGeometry x="379" y="140" width="52" height="36" as="geometry" />
        </mxCell>
        <mxCell id="RaUBzGo_gXqJ1IEt7aU4-4" value="Región 1" style="rounded=1;arcSize=10;dashed=1;fillColor=none;gradientColor=none;dashPattern=1 1;strokeWidth=2;labelPosition=center;verticalLabelPosition=bottom;align=center;verticalAlign=top;" vertex="1" parent="RaUBzGo_gXqJ1IEt7aU4-1">
          <mxGeometry x="399" y="200" width="600" height="440" as="geometry" />
        </mxCell>
        <mxCell id="RaUBzGo_gXqJ1IEt7aU4-5" value="zone 1" style="rounded=1;arcSize=10;dashed=1;strokeColor=#F59D56;fillColor=none;gradientColor=none;dashPattern=8 4;strokeWidth=2;labelPosition=center;verticalLabelPosition=bottom;align=center;verticalAlign=top;" vertex="1" parent="RaUBzGo_gXqJ1IEt7aU4-1">
          <mxGeometry x="439" y="240" width="520" height="360" as="geometry" />
        </mxCell>
        <mxCell id="RaUBzGo_gXqJ1IEt7aU4-6" value="" style="rounded=1;arcSize=10;dashed=0;fillColor=none;gradientColor=none;strokeWidth=2;" vertex="1" parent="RaUBzGo_gXqJ1IEt7aU4-1">
          <mxGeometry x="479" y="280" width="440" height="280" as="geometry" />
        </mxCell>
        <mxCell id="RaUBzGo_gXqJ1IEt7aU4-7" value="" style="dashed=0;html=1;shape=mxgraph.aws3.virtual_private_cloud;fillColor=#F58536;gradientColor=none;dashed=0;" vertex="1" parent="RaUBzGo_gXqJ1IEt7aU4-1">
          <mxGeometry x="499" y="260" width="52" height="36" as="geometry" />
        </mxCell>
        <mxCell id="RaUBzGo_gXqJ1IEt7aU4-8" value="Grupo de Seguridad 1" style="rounded=1;arcSize=10;dashed=1;strokeColor=#ff0000;fillColor=none;gradientColor=none;dashPattern=8 4;strokeWidth=2;labelPosition=center;verticalLabelPosition=bottom;align=center;verticalAlign=top;" vertex="1" parent="RaUBzGo_gXqJ1IEt7aU4-1">
          <mxGeometry x="519" y="321" width="360" height="199" as="geometry" />
        </mxCell>
        <mxCell id="RaUBzGo_gXqJ1IEt7aU4-9" value="EC2 instance 1 - T2 =&amp;gt; M5" style="outlineConnect=0;dashed=0;verticalLabelPosition=bottom;verticalAlign=top;align=center;html=1;shape=mxgraph.aws3.instance;fillColor=#F58534;gradientColor=none;" vertex="1" parent="RaUBzGo_gXqJ1IEt7aU4-1">
          <mxGeometry x="639" y="360" width="80" height="80" as="geometry" />
        </mxCell>
        <mxCell id="RaUBzGo_gXqJ1IEt7aU4-10" value="what time is it?" style="endArrow=classic;html=1;rounded=0;labelPosition=center;verticalLabelPosition=top;align=center;verticalAlign=bottom;fontSize=16;" edge="1" parent="RaUBzGo_gXqJ1IEt7aU4-1">
          <mxGeometry x="-0.6944" y="7" width="50" height="50" relative="1" as="geometry">
            <mxPoint x="216" y="401.66666666666697" as="sourcePoint" />
            <mxPoint x="636" y="401.66666666666697" as="targetPoint" />
            <mxPoint as="offset" />
          </mxGeometry>
        </mxCell>
        <mxCell id="RaUBzGo_gXqJ1IEt7aU4-11" value="the hour is 8 am" style="endArrow=none;html=1;rounded=0;startArrow=classicThin;startFill=1;labelPosition=center;verticalLabelPosition=bottom;align=center;verticalAlign=top;fontSize=16;" edge="1" parent="RaUBzGo_gXqJ1IEt7aU4-1">
          <mxGeometry x="-0.6697" y="-3" width="50" height="50" relative="1" as="geometry">
            <mxPoint x="218" y="424.6666666666665" as="sourcePoint" />
            <mxPoint x="634" y="424.6666666666665" as="targetPoint" />
            <mxPoint x="-1" as="offset" />
          </mxGeometry>
        </mxCell>
        <mxCell id="RaUBzGo_gXqJ1IEt7aU4-12" value="" style="outlineConnect=0;dashed=0;verticalLabelPosition=bottom;verticalAlign=top;align=center;html=1;shape=mxgraph.aws3.user;fillColor=#D2D3D3;gradientColor=none;" vertex="1" parent="RaUBzGo_gXqJ1IEt7aU4-1">
          <mxGeometry x="161" y="378" width="45" height="63" as="geometry" />
        </mxCell>
        <mxCell id="tf71cT4hsprDUpEgETDN-0" value="Crecimiento Vertical&lt;br&gt;&lt;div style=&quot;text-align: left;&quot;&gt;&lt;span style=&quot;background-color: transparent; color: light-dark(rgb(0, 0, 0), rgb(255, 255, 255));&quot;&gt;cuando se queda corta la instancía se debe aumentar los recursos&lt;/span&gt;&lt;/div&gt;" style="text;html=1;align=center;verticalAlign=middle;whiteSpace=wrap;rounded=0;fontSize=20;" vertex="1" parent="RaUBzGo_gXqJ1IEt7aU4-1">
          <mxGeometry x="544" y="70" width="270" height="30" as="geometry" />
        </mxCell>
        <mxCell id="tf71cT4hsprDUpEgETDN-1" value="" style="outlineConnect=0;dashed=0;verticalLabelPosition=bottom;verticalAlign=top;align=center;html=1;shape=mxgraph.aws3.users;fillColor=#D2D3D3;gradientColor=none;" vertex="1" parent="RaUBzGo_gXqJ1IEt7aU4-1">
          <mxGeometry x="95" y="315" width="66" height="63" as="geometry" />
        </mxCell>
        <mxCell id="tf71cT4hsprDUpEgETDN-2" value="" style="outlineConnect=0;dashed=0;verticalLabelPosition=bottom;verticalAlign=top;align=center;html=1;shape=mxgraph.aws3.users;fillColor=#D2D3D3;gradientColor=none;" vertex="1" parent="RaUBzGo_gXqJ1IEt7aU4-1">
          <mxGeometry x="95" y="441" width="66" height="63" as="geometry" />
        </mxCell>
      </root>
    </mxGraphModel>
  </diagram>
  <diagram name="Case-3" id="nttG_NjwyhUCQR791AF4">
    <mxGraphModel dx="1310" dy="860" grid="1" gridSize="10" guides="1" tooltips="1" connect="1" arrows="1" fold="1" page="1" pageScale="1" pageWidth="1169" pageHeight="827" math="0" shadow="0">
      <root>
        <mxCell id="0nixLoQCAaMIJAm1ljzn-0" />
        <mxCell id="0nixLoQCAaMIJAm1ljzn-1" parent="0nixLoQCAaMIJAm1ljzn-0" />
        <mxCell id="0nixLoQCAaMIJAm1ljzn-2" value="" style="rounded=1;arcSize=10;dashed=0;fillColor=none;gradientColor=none;strokeWidth=2;" parent="0nixLoQCAaMIJAm1ljzn-1" vertex="1">
          <mxGeometry x="356" y="160" width="680" height="520" as="geometry" />
        </mxCell>
        <mxCell id="0nixLoQCAaMIJAm1ljzn-3" value="" style="dashed=0;html=1;shape=mxgraph.aws3.cloud;fillColor=#F58536;gradientColor=none;dashed=0;" parent="0nixLoQCAaMIJAm1ljzn-1" vertex="1">
          <mxGeometry x="376" y="140" width="52" height="36" as="geometry" />
        </mxCell>
        <mxCell id="0nixLoQCAaMIJAm1ljzn-4" value="Región 1" style="rounded=1;arcSize=10;dashed=1;fillColor=none;gradientColor=none;dashPattern=1 1;strokeWidth=2;labelPosition=center;verticalLabelPosition=bottom;align=center;verticalAlign=top;" parent="0nixLoQCAaMIJAm1ljzn-1" vertex="1">
          <mxGeometry x="396" y="200" width="600" height="440" as="geometry" />
        </mxCell>
        <mxCell id="0nixLoQCAaMIJAm1ljzn-5" value="zone 1" style="rounded=1;arcSize=10;dashed=1;strokeColor=#F59D56;fillColor=none;gradientColor=none;dashPattern=8 4;strokeWidth=2;labelPosition=center;verticalLabelPosition=bottom;align=center;verticalAlign=top;" parent="0nixLoQCAaMIJAm1ljzn-1" vertex="1">
          <mxGeometry x="436" y="240" width="520" height="360" as="geometry" />
        </mxCell>
        <mxCell id="0nixLoQCAaMIJAm1ljzn-6" value="" style="rounded=1;arcSize=10;dashed=0;fillColor=none;gradientColor=none;strokeWidth=2;" parent="0nixLoQCAaMIJAm1ljzn-1" vertex="1">
          <mxGeometry x="476" y="280" width="440" height="280" as="geometry" />
        </mxCell>
        <mxCell id="0nixLoQCAaMIJAm1ljzn-7" value="" style="dashed=0;html=1;shape=mxgraph.aws3.virtual_private_cloud;fillColor=#F58536;gradientColor=none;dashed=0;" parent="0nixLoQCAaMIJAm1ljzn-1" vertex="1">
          <mxGeometry x="496" y="260" width="52" height="36" as="geometry" />
        </mxCell>
        <mxCell id="0nixLoQCAaMIJAm1ljzn-8" value="Grupo de Seguridad 1" style="rounded=1;arcSize=10;dashed=1;strokeColor=#ff0000;fillColor=none;gradientColor=none;dashPattern=8 4;strokeWidth=2;labelPosition=center;verticalLabelPosition=bottom;align=center;verticalAlign=top;" parent="0nixLoQCAaMIJAm1ljzn-1" vertex="1">
          <mxGeometry x="516" y="321" width="360" height="199" as="geometry" />
        </mxCell>
        <mxCell id="0nixLoQCAaMIJAm1ljzn-9" value="EC2 instance 1 - T2" style="outlineConnect=0;dashed=0;verticalLabelPosition=bottom;verticalAlign=top;align=center;html=1;shape=mxgraph.aws3.instance;fillColor=#F58534;gradientColor=none;" parent="0nixLoQCAaMIJAm1ljzn-1" vertex="1">
          <mxGeometry x="638" y="347" width="50" height="50" as="geometry" />
        </mxCell>
        <mxCell id="0nixLoQCAaMIJAm1ljzn-10" value="what time is it?" style="endArrow=classic;html=1;rounded=0;labelPosition=center;verticalLabelPosition=top;align=center;verticalAlign=bottom;fontSize=16;" parent="0nixLoQCAaMIJAm1ljzn-1" edge="1">
          <mxGeometry x="-0.6944" y="7" width="50" height="50" relative="1" as="geometry">
            <mxPoint x="213" y="361.66666666666697" as="sourcePoint" />
            <mxPoint x="633" y="361.66666666666697" as="targetPoint" />
            <mxPoint as="offset" />
          </mxGeometry>
        </mxCell>
        <mxCell id="0nixLoQCAaMIJAm1ljzn-11" value="the hour is 8 am" style="endArrow=none;html=1;rounded=0;startArrow=classicThin;startFill=1;labelPosition=center;verticalLabelPosition=bottom;align=center;verticalAlign=top;fontSize=16;" parent="0nixLoQCAaMIJAm1ljzn-1" edge="1">
          <mxGeometry x="-0.6697" y="-3" width="50" height="50" relative="1" as="geometry">
            <mxPoint x="215" y="384.6666666666665" as="sourcePoint" />
            <mxPoint x="631" y="384.6666666666665" as="targetPoint" />
            <mxPoint x="-1" as="offset" />
          </mxGeometry>
        </mxCell>
        <mxCell id="0nixLoQCAaMIJAm1ljzn-12" value="" style="outlineConnect=0;dashed=0;verticalLabelPosition=bottom;verticalAlign=top;align=center;html=1;shape=mxgraph.aws3.user;fillColor=#D2D3D3;gradientColor=none;" parent="0nixLoQCAaMIJAm1ljzn-1" vertex="1">
          <mxGeometry x="158" y="378" width="45" height="63" as="geometry" />
        </mxCell>
        <mxCell id="ZcK7z5Z8ZLQxKNvPrA1h-0" value="" style="outlineConnect=0;dashed=0;verticalLabelPosition=bottom;verticalAlign=top;align=center;html=1;shape=mxgraph.aws3.users;fillColor=#D2D3D3;gradientColor=none;" parent="0nixLoQCAaMIJAm1ljzn-1" vertex="1">
          <mxGeometry x="148" y="296" width="66" height="63" as="geometry" />
        </mxCell>
        <mxCell id="ZcK7z5Z8ZLQxKNvPrA1h-1" value="" style="outlineConnect=0;dashed=0;verticalLabelPosition=bottom;verticalAlign=top;align=center;html=1;shape=mxgraph.aws3.users;fillColor=#D2D3D3;gradientColor=none;" parent="0nixLoQCAaMIJAm1ljzn-1" vertex="1">
          <mxGeometry x="149" y="470" width="66" height="63" as="geometry" />
        </mxCell>
        <mxCell id="ZcK7z5Z8ZLQxKNvPrA1h-2" value="" style="outlineConnect=0;dashed=0;verticalLabelPosition=bottom;verticalAlign=top;align=center;html=1;shape=mxgraph.aws3.users;fillColor=#D2D3D3;gradientColor=none;" parent="0nixLoQCAaMIJAm1ljzn-1" vertex="1">
          <mxGeometry x="70" y="390" width="66" height="63" as="geometry" />
        </mxCell>
        <mxCell id="ZcK7z5Z8ZLQxKNvPrA1h-3" value="" style="outlineConnect=0;dashed=0;verticalLabelPosition=bottom;verticalAlign=top;align=center;html=1;shape=mxgraph.aws3.users;fillColor=#D2D3D3;gradientColor=none;" parent="0nixLoQCAaMIJAm1ljzn-1" vertex="1">
          <mxGeometry x="71" y="298" width="66" height="63" as="geometry" />
        </mxCell>
        <mxCell id="ZcK7z5Z8ZLQxKNvPrA1h-4" value="" style="outlineConnect=0;dashed=0;verticalLabelPosition=bottom;verticalAlign=top;align=center;html=1;shape=mxgraph.aws3.users;fillColor=#D2D3D3;gradientColor=none;" parent="0nixLoQCAaMIJAm1ljzn-1" vertex="1">
          <mxGeometry x="72" y="470" width="66" height="63" as="geometry" />
        </mxCell>
        <mxCell id="ZcK7z5Z8ZLQxKNvPrA1h-5" value="EC2 instance 2 - T2" style="outlineConnect=0;dashed=0;verticalLabelPosition=bottom;verticalAlign=top;align=center;html=1;shape=mxgraph.aws3.instance;fillColor=#F58534;gradientColor=none;" parent="0nixLoQCAaMIJAm1ljzn-1" vertex="1">
          <mxGeometry x="642" y="442" width="50" height="50" as="geometry" />
        </mxCell>
        <mxCell id="ZcK7z5Z8ZLQxKNvPrA1h-6" value="the hour is 8 am" style="endArrow=none;html=1;rounded=0;startArrow=classicThin;startFill=1;labelPosition=center;verticalLabelPosition=bottom;align=center;verticalAlign=top;fontSize=16;" parent="0nixLoQCAaMIJAm1ljzn-1" edge="1">
          <mxGeometry x="-0.6697" y="-3" width="50" height="50" relative="1" as="geometry">
            <mxPoint x="220" y="480.1666666666665" as="sourcePoint" />
            <mxPoint x="636" y="480.1666666666665" as="targetPoint" />
            <mxPoint x="-1" as="offset" />
          </mxGeometry>
        </mxCell>
        <mxCell id="ZcK7z5Z8ZLQxKNvPrA1h-7" value="what time is it?" style="endArrow=classic;html=1;rounded=0;labelPosition=center;verticalLabelPosition=top;align=center;verticalAlign=bottom;fontSize=16;" parent="0nixLoQCAaMIJAm1ljzn-1" edge="1">
          <mxGeometry x="-0.6944" y="7" width="50" height="50" relative="1" as="geometry">
            <mxPoint x="218" y="457.16666666666697" as="sourcePoint" />
            <mxPoint x="638" y="457.16666666666697" as="targetPoint" />
            <mxPoint as="offset" />
          </mxGeometry>
        </mxCell>
        <mxCell id="Pl-0D_5PTnnDjPqr4coD-0" value="Crecimiento Horizontal&lt;div&gt;Problemas con las diferentes IP&lt;/div&gt;" style="text;html=1;align=center;verticalAlign=middle;whiteSpace=wrap;rounded=0;fontSize=20;" parent="0nixLoQCAaMIJAm1ljzn-1" vertex="1">
          <mxGeometry x="520" y="110" width="270" height="30" as="geometry" />
        </mxCell>
      </root>
    </mxGraphModel>
  </diagram>
  <diagram name="Case-4" id="PM6Zr4x4tqdTUNiA80Qu">
    <mxGraphModel dx="1310" dy="860" grid="1" gridSize="10" guides="1" tooltips="1" connect="1" arrows="1" fold="1" page="1" pageScale="1" pageWidth="1169" pageHeight="827" math="0" shadow="0">
      <root>
        <mxCell id="R-hohEWQQBHyAgbRq0FO-0" />
        <mxCell id="R-hohEWQQBHyAgbRq0FO-1" parent="R-hohEWQQBHyAgbRq0FO-0" />
        <mxCell id="R-hohEWQQBHyAgbRq0FO-2" value="" style="rounded=1;arcSize=10;dashed=0;fillColor=none;gradientColor=none;strokeWidth=2;" vertex="1" parent="R-hohEWQQBHyAgbRq0FO-1">
          <mxGeometry x="436" y="160" width="680" height="520" as="geometry" />
        </mxCell>
        <mxCell id="R-hohEWQQBHyAgbRq0FO-3" value="" style="dashed=0;html=1;shape=mxgraph.aws3.cloud;fillColor=#F58536;gradientColor=none;dashed=0;" vertex="1" parent="R-hohEWQQBHyAgbRq0FO-1">
          <mxGeometry x="456" y="140" width="52" height="36" as="geometry" />
        </mxCell>
        <mxCell id="R-hohEWQQBHyAgbRq0FO-4" value="Región 1" style="rounded=1;arcSize=10;dashed=1;fillColor=none;gradientColor=none;dashPattern=1 1;strokeWidth=2;labelPosition=center;verticalLabelPosition=bottom;align=center;verticalAlign=top;" vertex="1" parent="R-hohEWQQBHyAgbRq0FO-1">
          <mxGeometry x="476" y="200" width="600" height="440" as="geometry" />
        </mxCell>
        <mxCell id="R-hohEWQQBHyAgbRq0FO-5" value="zone 1" style="rounded=1;arcSize=10;dashed=1;strokeColor=#F59D56;fillColor=none;gradientColor=none;dashPattern=8 4;strokeWidth=2;labelPosition=center;verticalLabelPosition=bottom;align=center;verticalAlign=top;" vertex="1" parent="R-hohEWQQBHyAgbRq0FO-1">
          <mxGeometry x="516" y="240" width="520" height="360" as="geometry" />
        </mxCell>
        <mxCell id="R-hohEWQQBHyAgbRq0FO-6" value="" style="rounded=1;arcSize=10;dashed=0;fillColor=none;gradientColor=none;strokeWidth=2;" vertex="1" parent="R-hohEWQQBHyAgbRq0FO-1">
          <mxGeometry x="556" y="280" width="440" height="280" as="geometry" />
        </mxCell>
        <mxCell id="R-hohEWQQBHyAgbRq0FO-7" value="" style="dashed=0;html=1;shape=mxgraph.aws3.virtual_private_cloud;fillColor=#F58536;gradientColor=none;dashed=0;" vertex="1" parent="R-hohEWQQBHyAgbRq0FO-1">
          <mxGeometry x="576" y="260" width="52" height="36" as="geometry" />
        </mxCell>
        <mxCell id="R-hohEWQQBHyAgbRq0FO-8" value="Grupo de Seguridad 1" style="rounded=1;arcSize=10;dashed=1;strokeColor=#ff0000;fillColor=none;gradientColor=none;dashPattern=8 4;strokeWidth=2;labelPosition=center;verticalLabelPosition=bottom;align=center;verticalAlign=top;" vertex="1" parent="R-hohEWQQBHyAgbRq0FO-1">
          <mxGeometry x="596" y="321" width="360" height="199" as="geometry" />
        </mxCell>
        <mxCell id="R-hohEWQQBHyAgbRq0FO-9" value="EC2 instance 1 - T2" style="outlineConnect=0;dashed=0;verticalLabelPosition=bottom;verticalAlign=top;align=center;html=1;shape=mxgraph.aws3.instance;fillColor=#F58534;gradientColor=none;" vertex="1" parent="R-hohEWQQBHyAgbRq0FO-1">
          <mxGeometry x="640" y="359" width="50" height="50" as="geometry" />
        </mxCell>
        <mxCell id="R-hohEWQQBHyAgbRq0FO-12" value="" style="outlineConnect=0;dashed=0;verticalLabelPosition=bottom;verticalAlign=top;align=center;html=1;shape=mxgraph.aws3.user;fillColor=#D2D3D3;gradientColor=none;" vertex="1" parent="R-hohEWQQBHyAgbRq0FO-1">
          <mxGeometry x="158" y="378" width="45" height="63" as="geometry" />
        </mxCell>
        <mxCell id="R-hohEWQQBHyAgbRq0FO-13" value="" style="outlineConnect=0;dashed=0;verticalLabelPosition=bottom;verticalAlign=top;align=center;html=1;shape=mxgraph.aws3.users;fillColor=#D2D3D3;gradientColor=none;" vertex="1" parent="R-hohEWQQBHyAgbRq0FO-1">
          <mxGeometry x="148" y="296" width="66" height="63" as="geometry" />
        </mxCell>
        <mxCell id="R-hohEWQQBHyAgbRq0FO-14" value="" style="outlineConnect=0;dashed=0;verticalLabelPosition=bottom;verticalAlign=top;align=center;html=1;shape=mxgraph.aws3.users;fillColor=#D2D3D3;gradientColor=none;" vertex="1" parent="R-hohEWQQBHyAgbRq0FO-1">
          <mxGeometry x="149" y="470" width="66" height="63" as="geometry" />
        </mxCell>
        <mxCell id="R-hohEWQQBHyAgbRq0FO-15" value="" style="outlineConnect=0;dashed=0;verticalLabelPosition=bottom;verticalAlign=top;align=center;html=1;shape=mxgraph.aws3.users;fillColor=#D2D3D3;gradientColor=none;" vertex="1" parent="R-hohEWQQBHyAgbRq0FO-1">
          <mxGeometry x="70" y="390" width="66" height="63" as="geometry" />
        </mxCell>
        <mxCell id="R-hohEWQQBHyAgbRq0FO-16" value="" style="outlineConnect=0;dashed=0;verticalLabelPosition=bottom;verticalAlign=top;align=center;html=1;shape=mxgraph.aws3.users;fillColor=#D2D3D3;gradientColor=none;" vertex="1" parent="R-hohEWQQBHyAgbRq0FO-1">
          <mxGeometry x="71" y="298" width="66" height="63" as="geometry" />
        </mxCell>
        <mxCell id="R-hohEWQQBHyAgbRq0FO-17" value="" style="outlineConnect=0;dashed=0;verticalLabelPosition=bottom;verticalAlign=top;align=center;html=1;shape=mxgraph.aws3.users;fillColor=#D2D3D3;gradientColor=none;" vertex="1" parent="R-hohEWQQBHyAgbRq0FO-1">
          <mxGeometry x="72" y="470" width="66" height="63" as="geometry" />
        </mxCell>
        <mxCell id="R-hohEWQQBHyAgbRq0FO-18" value="EC2 instance 3 - T2" style="outlineConnect=0;dashed=0;verticalLabelPosition=bottom;verticalAlign=top;align=center;html=1;shape=mxgraph.aws3.instance;fillColor=#F58534;gradientColor=none;" vertex="1" parent="R-hohEWQQBHyAgbRq0FO-1">
          <mxGeometry x="850" y="441" width="50" height="50" as="geometry" />
        </mxCell>
        <mxCell id="R-hohEWQQBHyAgbRq0FO-19" value="the hour is 8 am" style="endArrow=none;html=1;rounded=0;startArrow=classicThin;startFill=1;labelPosition=center;verticalLabelPosition=bottom;align=center;verticalAlign=top;fontSize=16;" edge="1" parent="R-hohEWQQBHyAgbRq0FO-1">
          <mxGeometry x="-0.6697" y="-3" width="50" height="50" relative="1" as="geometry">
            <mxPoint x="260" y="500.6666666666665" as="sourcePoint" />
            <mxPoint x="676" y="500.6666666666665" as="targetPoint" />
            <mxPoint x="-1" as="offset" />
          </mxGeometry>
        </mxCell>
        <mxCell id="R-hohEWQQBHyAgbRq0FO-20" value="what time is it?" style="endArrow=classic;html=1;rounded=0;labelPosition=center;verticalLabelPosition=top;align=center;verticalAlign=bottom;fontSize=16;" edge="1" parent="R-hohEWQQBHyAgbRq0FO-1">
          <mxGeometry x="-0.7143" y="10" width="50" height="50" relative="1" as="geometry">
            <mxPoint x="260" y="480" as="sourcePoint" />
            <mxPoint x="680" y="480" as="targetPoint" />
            <mxPoint as="offset" />
          </mxGeometry>
        </mxCell>
        <mxCell id="R-hohEWQQBHyAgbRq0FO-21" value="En rutamiento por ROUTE53&lt;div&gt;En caso de caida tendremos problemas&lt;/div&gt;" style="text;html=1;align=center;verticalAlign=middle;whiteSpace=wrap;rounded=0;fontSize=20;" vertex="1" parent="R-hohEWQQBHyAgbRq0FO-1">
          <mxGeometry x="601" y="110" width="270" height="30" as="geometry" />
        </mxCell>
        <mxCell id="VNZCdpFLgUDbgltC0N4m-0" value="Route53" style="outlineConnect=0;dashed=0;verticalLabelPosition=middle;verticalAlign=middle;align=center;html=1;shape=mxgraph.aws3.hosted_zone;fillColor=#6a00ff;strokeColor=#3700CC;labelPosition=center;fontColor=#ffffff;" vertex="1" parent="R-hohEWQQBHyAgbRq0FO-1">
          <mxGeometry x="400" y="361" width="63" height="64.5" as="geometry" />
        </mxCell>
        <mxCell id="VNZCdpFLgUDbgltC0N4m-1" value="EC2 instance 2 - T2" style="outlineConnect=0;dashed=0;verticalLabelPosition=bottom;verticalAlign=top;align=center;html=1;shape=mxgraph.aws3.instance;fillColor=#F58534;gradientColor=none;" vertex="1" parent="R-hohEWQQBHyAgbRq0FO-1">
          <mxGeometry x="750" y="391" width="50" height="50" as="geometry" />
        </mxCell>
        <mxCell id="VNZCdpFLgUDbgltC0N4m-2" value="Consulta DNS&lt;div&gt;api.whattimeisit.com&lt;/div&gt;&lt;div&gt;Registro A&lt;/div&gt;&lt;div&gt;TTL 1H&lt;/div&gt;" style="text;html=1;align=right;verticalAlign=middle;whiteSpace=wrap;rounded=0;fontSize=14;" vertex="1" parent="R-hohEWQQBHyAgbRq0FO-1">
          <mxGeometry x="270" y="280" width="150" height="70" as="geometry" />
        </mxCell>
        <mxCell id="8UkTsT5CWjws9sHPGWM3-0" value="llamada a DNS" style="endArrow=classic;html=1;rounded=0;labelPosition=center;verticalLabelPosition=top;align=center;verticalAlign=bottom;" edge="1" parent="R-hohEWQQBHyAgbRq0FO-1">
          <mxGeometry width="50" height="50" relative="1" as="geometry">
            <mxPoint x="214" y="389.33000000000004" as="sourcePoint" />
            <mxPoint x="394" y="389.33000000000004" as="targetPoint" />
          </mxGeometry>
        </mxCell>
      </root>
    </mxGraphModel>
  </diagram>
  <diagram name="Case-5" id="NK86XUNV7xu56-xpF4TA">
    <mxGraphModel dx="1310" dy="860" grid="1" gridSize="10" guides="1" tooltips="1" connect="1" arrows="1" fold="1" page="1" pageScale="1" pageWidth="1169" pageHeight="827" math="0" shadow="0">
      <root>
        <mxCell id="onVXPCofuWVBBlI0zbI6-0" />
        <mxCell id="onVXPCofuWVBBlI0zbI6-1" parent="onVXPCofuWVBBlI0zbI6-0" />
        <mxCell id="onVXPCofuWVBBlI0zbI6-2" value="" style="rounded=1;arcSize=10;dashed=0;fillColor=none;gradientColor=none;strokeWidth=2;" vertex="1" parent="onVXPCofuWVBBlI0zbI6-1">
          <mxGeometry x="436" y="160" width="680" height="520" as="geometry" />
        </mxCell>
        <mxCell id="onVXPCofuWVBBlI0zbI6-3" value="" style="dashed=0;html=1;shape=mxgraph.aws3.cloud;fillColor=#F58536;gradientColor=none;dashed=0;" vertex="1" parent="onVXPCofuWVBBlI0zbI6-1">
          <mxGeometry x="456" y="140" width="52" height="36" as="geometry" />
        </mxCell>
        <mxCell id="onVXPCofuWVBBlI0zbI6-4" value="Región 1" style="rounded=1;arcSize=10;dashed=1;fillColor=none;gradientColor=none;dashPattern=1 1;strokeWidth=2;labelPosition=center;verticalLabelPosition=bottom;align=center;verticalAlign=top;" vertex="1" parent="onVXPCofuWVBBlI0zbI6-1">
          <mxGeometry x="476" y="200" width="600" height="440" as="geometry" />
        </mxCell>
        <mxCell id="onVXPCofuWVBBlI0zbI6-5" value="zone 1" style="rounded=1;arcSize=10;dashed=1;strokeColor=#F59D56;fillColor=none;gradientColor=none;dashPattern=8 4;strokeWidth=2;labelPosition=center;verticalLabelPosition=bottom;align=center;verticalAlign=top;" vertex="1" parent="onVXPCofuWVBBlI0zbI6-1">
          <mxGeometry x="516" y="240" width="520" height="360" as="geometry" />
        </mxCell>
        <mxCell id="onVXPCofuWVBBlI0zbI6-6" value="" style="rounded=1;arcSize=10;dashed=0;fillColor=none;gradientColor=none;strokeWidth=2;" vertex="1" parent="onVXPCofuWVBBlI0zbI6-1">
          <mxGeometry x="556" y="280" width="440" height="280" as="geometry" />
        </mxCell>
        <mxCell id="onVXPCofuWVBBlI0zbI6-7" value="" style="dashed=0;html=1;shape=mxgraph.aws3.virtual_private_cloud;fillColor=#F58536;gradientColor=none;dashed=0;" vertex="1" parent="onVXPCofuWVBBlI0zbI6-1">
          <mxGeometry x="576" y="260" width="52" height="36" as="geometry" />
        </mxCell>
        <mxCell id="onVXPCofuWVBBlI0zbI6-8" value="Grupo de Seguridad 1" style="rounded=1;arcSize=10;dashed=1;strokeColor=#ff0000;fillColor=none;gradientColor=none;dashPattern=8 4;strokeWidth=2;labelPosition=center;verticalLabelPosition=bottom;align=center;verticalAlign=top;" vertex="1" parent="onVXPCofuWVBBlI0zbI6-1">
          <mxGeometry x="596" y="321" width="360" height="199" as="geometry" />
        </mxCell>
        <mxCell id="onVXPCofuWVBBlI0zbI6-9" value="EC2 instance 1 - T2" style="outlineConnect=0;dashed=0;verticalLabelPosition=bottom;verticalAlign=top;align=center;html=1;shape=mxgraph.aws3.instance;fillColor=#F58534;gradientColor=none;" vertex="1" parent="onVXPCofuWVBBlI0zbI6-1">
          <mxGeometry x="640" y="359" width="50" height="50" as="geometry" />
        </mxCell>
        <mxCell id="onVXPCofuWVBBlI0zbI6-16" value="EC2 instance 3 - T2" style="outlineConnect=0;dashed=0;verticalLabelPosition=bottom;verticalAlign=top;align=center;html=1;shape=mxgraph.aws3.instance;fillColor=#F58534;gradientColor=none;" vertex="1" parent="onVXPCofuWVBBlI0zbI6-1">
          <mxGeometry x="850" y="441" width="50" height="50" as="geometry" />
        </mxCell>
        <mxCell id="onVXPCofuWVBBlI0zbI6-17" value="the hour is 8 am" style="endArrow=none;html=1;rounded=0;startArrow=classicThin;startFill=1;labelPosition=center;verticalLabelPosition=bottom;align=center;verticalAlign=top;fontSize=16;" edge="1" parent="onVXPCofuWVBBlI0zbI6-1">
          <mxGeometry x="-0.6697" y="-3" width="50" height="50" relative="1" as="geometry">
            <mxPoint x="162" y="479.99666666666644" as="sourcePoint" />
            <mxPoint x="487" y="480" as="targetPoint" />
            <mxPoint x="-1" as="offset" />
          </mxGeometry>
        </mxCell>
        <mxCell id="onVXPCofuWVBBlI0zbI6-18" value="what time is it?" style="endArrow=classic;html=1;rounded=0;labelPosition=center;verticalLabelPosition=top;align=center;verticalAlign=bottom;fontSize=16;" edge="1" parent="onVXPCofuWVBBlI0zbI6-1">
          <mxGeometry y="10" width="50" height="50" relative="1" as="geometry">
            <mxPoint x="170" y="454.17" as="sourcePoint" />
            <mxPoint x="480" y="454.17" as="targetPoint" />
            <mxPoint as="offset" />
          </mxGeometry>
        </mxCell>
        <mxCell id="onVXPCofuWVBBlI0zbI6-19" value="En rutamiento por ROUTE53&lt;div&gt;Por el Balanceador de Carga ELB&lt;/div&gt;" style="text;html=1;align=center;verticalAlign=middle;whiteSpace=wrap;rounded=0;fontSize=20;" vertex="1" parent="onVXPCofuWVBBlI0zbI6-1">
          <mxGeometry x="601" y="60" width="270" height="80" as="geometry" />
        </mxCell>
        <mxCell id="onVXPCofuWVBBlI0zbI6-20" value="Route53" style="outlineConnect=0;dashed=0;verticalLabelPosition=middle;verticalAlign=middle;align=center;html=1;shape=mxgraph.aws3.hosted_zone;fillColor=#6a00ff;strokeColor=#3700CC;labelPosition=center;fontColor=#ffffff;" vertex="1" parent="onVXPCofuWVBBlI0zbI6-1">
          <mxGeometry x="400" y="361" width="63" height="64.5" as="geometry" />
        </mxCell>
        <mxCell id="onVXPCofuWVBBlI0zbI6-21" value="EC2 instance 2 - T2" style="outlineConnect=0;dashed=0;verticalLabelPosition=bottom;verticalAlign=top;align=center;html=1;shape=mxgraph.aws3.instance;fillColor=#F58534;gradientColor=none;" vertex="1" parent="onVXPCofuWVBBlI0zbI6-1">
          <mxGeometry x="750" y="391" width="50" height="50" as="geometry" />
        </mxCell>
        <mxCell id="onVXPCofuWVBBlI0zbI6-22" value="Consulta DNS&lt;div&gt;api.whattimeisit.com&lt;/div&gt;&lt;div&gt;Registro Alias&lt;/div&gt;&lt;div&gt;TTL 1H&lt;/div&gt;" style="text;html=1;align=right;verticalAlign=middle;whiteSpace=wrap;rounded=0;fontSize=14;" vertex="1" parent="onVXPCofuWVBBlI0zbI6-1">
          <mxGeometry x="270" y="280" width="150" height="70" as="geometry" />
        </mxCell>
        <mxCell id="ZGmNia760n1ElGFVLK0s-0" value="" style="group" vertex="1" connectable="0" parent="onVXPCofuWVBBlI0zbI6-1">
          <mxGeometry x="2" y="302" width="145" height="237" as="geometry" />
        </mxCell>
        <mxCell id="onVXPCofuWVBBlI0zbI6-10" value="" style="outlineConnect=0;dashed=0;verticalLabelPosition=bottom;verticalAlign=top;align=center;html=1;shape=mxgraph.aws3.user;fillColor=#D2D3D3;gradientColor=none;" vertex="1" parent="ZGmNia760n1ElGFVLK0s-0">
          <mxGeometry x="88" y="82" width="45" height="63" as="geometry" />
        </mxCell>
        <mxCell id="onVXPCofuWVBBlI0zbI6-11" value="" style="outlineConnect=0;dashed=0;verticalLabelPosition=bottom;verticalAlign=top;align=center;html=1;shape=mxgraph.aws3.users;fillColor=#D2D3D3;gradientColor=none;" vertex="1" parent="ZGmNia760n1ElGFVLK0s-0">
          <mxGeometry x="78" width="66" height="63" as="geometry" />
        </mxCell>
        <mxCell id="onVXPCofuWVBBlI0zbI6-12" value="" style="outlineConnect=0;dashed=0;verticalLabelPosition=bottom;verticalAlign=top;align=center;html=1;shape=mxgraph.aws3.users;fillColor=#D2D3D3;gradientColor=none;" vertex="1" parent="ZGmNia760n1ElGFVLK0s-0">
          <mxGeometry x="79" y="174" width="66" height="63" as="geometry" />
        </mxCell>
        <mxCell id="onVXPCofuWVBBlI0zbI6-13" value="" style="outlineConnect=0;dashed=0;verticalLabelPosition=bottom;verticalAlign=top;align=center;html=1;shape=mxgraph.aws3.users;fillColor=#D2D3D3;gradientColor=none;" vertex="1" parent="ZGmNia760n1ElGFVLK0s-0">
          <mxGeometry y="94" width="66" height="63" as="geometry" />
        </mxCell>
        <mxCell id="onVXPCofuWVBBlI0zbI6-14" value="" style="outlineConnect=0;dashed=0;verticalLabelPosition=bottom;verticalAlign=top;align=center;html=1;shape=mxgraph.aws3.users;fillColor=#D2D3D3;gradientColor=none;" vertex="1" parent="ZGmNia760n1ElGFVLK0s-0">
          <mxGeometry x="1" y="2" width="66" height="63" as="geometry" />
        </mxCell>
        <mxCell id="onVXPCofuWVBBlI0zbI6-15" value="" style="outlineConnect=0;dashed=0;verticalLabelPosition=bottom;verticalAlign=top;align=center;html=1;shape=mxgraph.aws3.users;fillColor=#D2D3D3;gradientColor=none;" vertex="1" parent="ZGmNia760n1ElGFVLK0s-0">
          <mxGeometry x="2" y="174" width="66" height="63" as="geometry" />
        </mxCell>
        <mxCell id="ZGmNia760n1ElGFVLK0s-1" value="ELB" style="outlineConnect=0;dashed=0;verticalLabelPosition=bottom;verticalAlign=top;align=center;html=1;shape=mxgraph.aws3.application_load_balancer;fillColor=#F58536;gradientColor=none;" vertex="1" parent="onVXPCofuWVBBlI0zbI6-1">
          <mxGeometry x="487" y="419" width="69" height="72" as="geometry" />
        </mxCell>
        <mxCell id="ZGmNia760n1ElGFVLK0s-2" value="llamada a DNS" style="endArrow=classic;html=1;rounded=0;labelPosition=center;verticalLabelPosition=top;align=center;verticalAlign=bottom;" edge="1" parent="onVXPCofuWVBBlI0zbI6-1">
          <mxGeometry width="50" height="50" relative="1" as="geometry">
            <mxPoint x="150" y="390" as="sourcePoint" />
            <mxPoint x="370" y="390" as="targetPoint" />
          </mxGeometry>
        </mxCell>
        <mxCell id="QTBiMTOABua16BbLcu7B-0" value="" style="endArrow=classic;html=1;rounded=0;startArrow=classicThin;startFill=1;" edge="1" parent="onVXPCofuWVBBlI0zbI6-1">
          <mxGeometry width="50" height="50" relative="1" as="geometry">
            <mxPoint x="562" y="454.17" as="sourcePoint" />
            <mxPoint x="672" y="454.17" as="targetPoint" />
          </mxGeometry>
        </mxCell>
      </root>
    </mxGraphModel>
  </diagram>
  <diagram name="Case-6" id="5wEsQjup497ZwxYxhd_6">
    <mxGraphModel dx="1310" dy="860" grid="1" gridSize="10" guides="1" tooltips="1" connect="1" arrows="1" fold="1" page="1" pageScale="1" pageWidth="1169" pageHeight="827" math="0" shadow="0">
      <root>
        <mxCell id="aN68B1hPyli_CRmx8Oxr-0" />
        <mxCell id="aN68B1hPyli_CRmx8Oxr-1" parent="aN68B1hPyli_CRmx8Oxr-0" />
        <mxCell id="aN68B1hPyli_CRmx8Oxr-2" value="" style="rounded=1;arcSize=10;dashed=0;fillColor=none;gradientColor=none;strokeWidth=2;" vertex="1" parent="aN68B1hPyli_CRmx8Oxr-1">
          <mxGeometry x="440" y="160" width="680" height="520" as="geometry" />
        </mxCell>
        <mxCell id="aN68B1hPyli_CRmx8Oxr-3" value="" style="dashed=0;html=1;shape=mxgraph.aws3.cloud;fillColor=#F58536;gradientColor=none;dashed=0;" vertex="1" parent="aN68B1hPyli_CRmx8Oxr-1">
          <mxGeometry x="456" y="140" width="52" height="36" as="geometry" />
        </mxCell>
        <mxCell id="aN68B1hPyli_CRmx8Oxr-4" value="Región 1" style="rounded=1;arcSize=10;dashed=1;fillColor=none;gradientColor=none;dashPattern=1 1;strokeWidth=2;labelPosition=center;verticalLabelPosition=bottom;align=center;verticalAlign=top;" vertex="1" parent="aN68B1hPyli_CRmx8Oxr-1">
          <mxGeometry x="480" y="200" width="600" height="440" as="geometry" />
        </mxCell>
        <mxCell id="aN68B1hPyli_CRmx8Oxr-5" value="zone 1" style="rounded=1;arcSize=10;dashed=1;strokeColor=#F59D56;fillColor=none;gradientColor=none;dashPattern=8 4;strokeWidth=2;labelPosition=center;verticalLabelPosition=bottom;align=center;verticalAlign=top;" vertex="1" parent="aN68B1hPyli_CRmx8Oxr-1">
          <mxGeometry x="520" y="240" width="516" height="360" as="geometry" />
        </mxCell>
        <mxCell id="aN68B1hPyli_CRmx8Oxr-6" value="" style="rounded=1;arcSize=10;dashed=0;fillColor=none;gradientColor=none;strokeWidth=2;" vertex="1" parent="aN68B1hPyli_CRmx8Oxr-1">
          <mxGeometry x="556" y="280" width="440" height="280" as="geometry" />
        </mxCell>
        <mxCell id="aN68B1hPyli_CRmx8Oxr-7" value="" style="dashed=0;html=1;shape=mxgraph.aws3.virtual_private_cloud;fillColor=#F58536;gradientColor=none;dashed=0;" vertex="1" parent="aN68B1hPyli_CRmx8Oxr-1">
          <mxGeometry x="576" y="260" width="52" height="36" as="geometry" />
        </mxCell>
        <mxCell id="aN68B1hPyli_CRmx8Oxr-8" value="Grupo de Seguridad 1" style="rounded=1;arcSize=10;dashed=1;strokeColor=#ff0000;fillColor=none;gradientColor=none;dashPattern=8 4;strokeWidth=2;labelPosition=center;verticalLabelPosition=bottom;align=center;verticalAlign=top;" vertex="1" parent="aN68B1hPyli_CRmx8Oxr-1">
          <mxGeometry x="596" y="321" width="360" height="199" as="geometry" />
        </mxCell>
        <mxCell id="aN68B1hPyli_CRmx8Oxr-9" value="EC2 instance 1 - T2" style="outlineConnect=0;dashed=0;verticalLabelPosition=bottom;verticalAlign=top;align=center;html=1;shape=mxgraph.aws3.instance;fillColor=#F58534;gradientColor=none;" vertex="1" parent="aN68B1hPyli_CRmx8Oxr-1">
          <mxGeometry x="690" y="359" width="41" height="41" as="geometry" />
        </mxCell>
        <mxCell id="aN68B1hPyli_CRmx8Oxr-10" value="EC2 instance 3 - T2" style="outlineConnect=0;dashed=0;verticalLabelPosition=bottom;verticalAlign=top;align=center;html=1;shape=mxgraph.aws3.instance;fillColor=#F58534;gradientColor=none;" vertex="1" parent="aN68B1hPyli_CRmx8Oxr-1">
          <mxGeometry x="810" y="361" width="40" height="40" as="geometry" />
        </mxCell>
        <mxCell id="aN68B1hPyli_CRmx8Oxr-11" value="the hour is 8 am" style="endArrow=none;html=1;rounded=0;startArrow=classicThin;startFill=1;labelPosition=center;verticalLabelPosition=bottom;align=center;verticalAlign=top;fontSize=16;" edge="1" parent="aN68B1hPyli_CRmx8Oxr-1">
          <mxGeometry x="-0.6697" y="-3" width="50" height="50" relative="1" as="geometry">
            <mxPoint x="162" y="479.99666666666644" as="sourcePoint" />
            <mxPoint x="487" y="480" as="targetPoint" />
            <mxPoint x="-1" as="offset" />
          </mxGeometry>
        </mxCell>
        <mxCell id="aN68B1hPyli_CRmx8Oxr-12" value="what time is it?" style="endArrow=classic;html=1;rounded=0;labelPosition=center;verticalLabelPosition=top;align=center;verticalAlign=bottom;fontSize=16;" edge="1" parent="aN68B1hPyli_CRmx8Oxr-1">
          <mxGeometry y="10" width="50" height="50" relative="1" as="geometry">
            <mxPoint x="170" y="454.17" as="sourcePoint" />
            <mxPoint x="480" y="454.17" as="targetPoint" />
            <mxPoint as="offset" />
          </mxGeometry>
        </mxCell>
        <mxCell id="aN68B1hPyli_CRmx8Oxr-13" value="En rutamiento por ROUTE53&lt;div&gt;Por el Balanceador de Carga ELB con un Auto Escalado&lt;/div&gt;" style="text;html=1;align=center;verticalAlign=middle;whiteSpace=wrap;rounded=0;fontSize=20;" vertex="1" parent="aN68B1hPyli_CRmx8Oxr-1">
          <mxGeometry x="601" y="60" width="270" height="80" as="geometry" />
        </mxCell>
        <mxCell id="aN68B1hPyli_CRmx8Oxr-14" value="Route53" style="outlineConnect=0;dashed=0;verticalLabelPosition=middle;verticalAlign=middle;align=center;html=1;shape=mxgraph.aws3.hosted_zone;fillColor=#6a00ff;strokeColor=#3700CC;labelPosition=center;fontColor=#ffffff;" vertex="1" parent="aN68B1hPyli_CRmx8Oxr-1">
          <mxGeometry x="410" y="359" width="63" height="64.5" as="geometry" />
        </mxCell>
        <mxCell id="aN68B1hPyli_CRmx8Oxr-15" value="EC2 instance 2 - T2" style="outlineConnect=0;dashed=0;verticalLabelPosition=bottom;verticalAlign=top;align=center;html=1;shape=mxgraph.aws3.instance;fillColor=#F58534;gradientColor=none;" vertex="1" parent="aN68B1hPyli_CRmx8Oxr-1">
          <mxGeometry x="756.5" y="425.5" width="39" height="39" as="geometry" />
        </mxCell>
        <mxCell id="aN68B1hPyli_CRmx8Oxr-16" value="Consulta DNS&lt;div&gt;api.whattimeisit.com&lt;/div&gt;&lt;div&gt;Registro Alias&lt;/div&gt;&lt;div&gt;TTL 1H&lt;/div&gt;" style="text;html=1;align=right;verticalAlign=middle;whiteSpace=wrap;rounded=0;fontSize=14;" vertex="1" parent="aN68B1hPyli_CRmx8Oxr-1">
          <mxGeometry x="260" y="280" width="150" height="69" as="geometry" />
        </mxCell>
        <mxCell id="aN68B1hPyli_CRmx8Oxr-17" value="" style="group" vertex="1" connectable="0" parent="aN68B1hPyli_CRmx8Oxr-1">
          <mxGeometry x="1" y="302" width="145" height="237" as="geometry" />
        </mxCell>
        <mxCell id="aN68B1hPyli_CRmx8Oxr-18" value="" style="outlineConnect=0;dashed=0;verticalLabelPosition=bottom;verticalAlign=top;align=center;html=1;shape=mxgraph.aws3.user;fillColor=#D2D3D3;gradientColor=none;" vertex="1" parent="aN68B1hPyli_CRmx8Oxr-17">
          <mxGeometry x="88" y="82" width="45" height="63" as="geometry" />
        </mxCell>
        <mxCell id="aN68B1hPyli_CRmx8Oxr-19" value="" style="outlineConnect=0;dashed=0;verticalLabelPosition=bottom;verticalAlign=top;align=center;html=1;shape=mxgraph.aws3.users;fillColor=#D2D3D3;gradientColor=none;" vertex="1" parent="aN68B1hPyli_CRmx8Oxr-17">
          <mxGeometry x="78" width="66" height="63" as="geometry" />
        </mxCell>
        <mxCell id="aN68B1hPyli_CRmx8Oxr-20" value="" style="outlineConnect=0;dashed=0;verticalLabelPosition=bottom;verticalAlign=top;align=center;html=1;shape=mxgraph.aws3.users;fillColor=#D2D3D3;gradientColor=none;" vertex="1" parent="aN68B1hPyli_CRmx8Oxr-17">
          <mxGeometry x="79" y="174" width="66" height="63" as="geometry" />
        </mxCell>
        <mxCell id="aN68B1hPyli_CRmx8Oxr-21" value="" style="outlineConnect=0;dashed=0;verticalLabelPosition=bottom;verticalAlign=top;align=center;html=1;shape=mxgraph.aws3.users;fillColor=#D2D3D3;gradientColor=none;" vertex="1" parent="aN68B1hPyli_CRmx8Oxr-17">
          <mxGeometry y="94" width="66" height="63" as="geometry" />
        </mxCell>
        <mxCell id="aN68B1hPyli_CRmx8Oxr-22" value="" style="outlineConnect=0;dashed=0;verticalLabelPosition=bottom;verticalAlign=top;align=center;html=1;shape=mxgraph.aws3.users;fillColor=#D2D3D3;gradientColor=none;" vertex="1" parent="aN68B1hPyli_CRmx8Oxr-17">
          <mxGeometry x="1" y="2" width="66" height="63" as="geometry" />
        </mxCell>
        <mxCell id="aN68B1hPyli_CRmx8Oxr-23" value="" style="outlineConnect=0;dashed=0;verticalLabelPosition=bottom;verticalAlign=top;align=center;html=1;shape=mxgraph.aws3.users;fillColor=#D2D3D3;gradientColor=none;" vertex="1" parent="aN68B1hPyli_CRmx8Oxr-17">
          <mxGeometry x="2" y="174" width="66" height="63" as="geometry" />
        </mxCell>
        <mxCell id="aN68B1hPyli_CRmx8Oxr-24" value="ELB" style="outlineConnect=0;dashed=0;verticalLabelPosition=bottom;verticalAlign=top;align=center;html=1;shape=mxgraph.aws3.application_load_balancer;fillColor=#F58536;gradientColor=none;" vertex="1" parent="aN68B1hPyli_CRmx8Oxr-1">
          <mxGeometry x="487" y="419" width="69" height="72" as="geometry" />
        </mxCell>
        <mxCell id="aN68B1hPyli_CRmx8Oxr-25" value="llamada a DNS" style="endArrow=classic;html=1;rounded=0;labelPosition=center;verticalLabelPosition=top;align=center;verticalAlign=bottom;" edge="1" parent="aN68B1hPyli_CRmx8Oxr-1">
          <mxGeometry width="50" height="50" relative="1" as="geometry">
            <mxPoint x="150" y="390" as="sourcePoint" />
            <mxPoint x="370" y="390" as="targetPoint" />
          </mxGeometry>
        </mxCell>
        <mxCell id="aN68B1hPyli_CRmx8Oxr-26" value="" style="endArrow=classic;html=1;rounded=0;startArrow=classicThin;startFill=1;" edge="1" parent="aN68B1hPyli_CRmx8Oxr-1">
          <mxGeometry width="50" height="50" relative="1" as="geometry">
            <mxPoint x="562" y="454.17" as="sourcePoint" />
            <mxPoint x="672" y="454.17" as="targetPoint" />
          </mxGeometry>
        </mxCell>
        <mxCell id="1VyOZs4r5_m92o-kQ1GO-0" value="Auto Scalling" style="rounded=1;arcSize=10;dashed=1;fillColor=none;gradientColor=none;dashPattern=8 3 1 3;strokeWidth=2;labelPosition=center;verticalLabelPosition=bottom;align=center;verticalAlign=top;" vertex="1" parent="aN68B1hPyli_CRmx8Oxr-1">
          <mxGeometry x="640" y="341" width="280" height="149" as="geometry" />
        </mxCell>
      </root>
    </mxGraphModel>
  </diagram>
  <diagram name="Case-7" id="zhJQ5x71U_1fGH7diiWi">
    <mxGraphModel dx="1429" dy="938" grid="1" gridSize="10" guides="1" tooltips="1" connect="1" arrows="1" fold="1" page="1" pageScale="1" pageWidth="1169" pageHeight="827" math="0" shadow="0">
      <root>
        <mxCell id="0beyIHqzRv0S4wK59_IB-0" />
        <mxCell id="0beyIHqzRv0S4wK59_IB-1" parent="0beyIHqzRv0S4wK59_IB-0" />
        <mxCell id="0beyIHqzRv0S4wK59_IB-27" value="Auto Scalling" style="rounded=1;arcSize=10;dashed=1;fillColor=none;gradientColor=none;dashPattern=8 3 1 3;strokeWidth=2;labelPosition=center;verticalLabelPosition=bottom;align=center;verticalAlign=top;" vertex="1" parent="0beyIHqzRv0S4wK59_IB-1">
          <mxGeometry x="476.5" y="200" width="603.5" height="440" as="geometry" />
        </mxCell>
        <mxCell id="0beyIHqzRv0S4wK59_IB-2" value="" style="rounded=1;arcSize=10;dashed=0;fillColor=none;gradientColor=none;strokeWidth=2;" vertex="1" parent="0beyIHqzRv0S4wK59_IB-1">
          <mxGeometry x="400" y="120" width="760" height="600" as="geometry" />
        </mxCell>
        <mxCell id="0beyIHqzRv0S4wK59_IB-3" value="" style="dashed=0;html=1;shape=mxgraph.aws3.cloud;fillColor=#F58536;gradientColor=none;dashed=0;" vertex="1" parent="0beyIHqzRv0S4wK59_IB-1">
          <mxGeometry x="456" y="100" width="52" height="36" as="geometry" />
        </mxCell>
        <mxCell id="0beyIHqzRv0S4wK59_IB-4" value="Región 1" style="rounded=1;arcSize=10;dashed=1;fillColor=none;gradientColor=none;dashPattern=1 1;strokeWidth=2;labelPosition=center;verticalLabelPosition=bottom;align=center;verticalAlign=top;" vertex="1" parent="0beyIHqzRv0S4wK59_IB-1">
          <mxGeometry x="440" y="160" width="680" height="520" as="geometry" />
        </mxCell>
        <mxCell id="0beyIHqzRv0S4wK59_IB-11" value="the hour is 8 am" style="endArrow=none;html=1;rounded=0;startArrow=classicThin;startFill=1;labelPosition=center;verticalLabelPosition=bottom;align=center;verticalAlign=top;fontSize=16;" edge="1" parent="0beyIHqzRv0S4wK59_IB-1">
          <mxGeometry x="-0.6697" y="-3" width="50" height="50" relative="1" as="geometry">
            <mxPoint x="162" y="479.99666666666644" as="sourcePoint" />
            <mxPoint x="487" y="480" as="targetPoint" />
            <mxPoint x="-1" as="offset" />
          </mxGeometry>
        </mxCell>
        <mxCell id="0beyIHqzRv0S4wK59_IB-12" value="what time is it?" style="endArrow=classic;html=1;rounded=0;labelPosition=center;verticalLabelPosition=top;align=center;verticalAlign=bottom;fontSize=16;" edge="1" parent="0beyIHqzRv0S4wK59_IB-1">
          <mxGeometry y="10" width="50" height="50" relative="1" as="geometry">
            <mxPoint x="170" y="454.17" as="sourcePoint" />
            <mxPoint x="480" y="454.17" as="targetPoint" />
            <mxPoint as="offset" />
          </mxGeometry>
        </mxCell>
        <mxCell id="0beyIHqzRv0S4wK59_IB-13" value="En rutamiento por ROUTE53&lt;div&gt;Por el Balanceador de Carga ELB con un Auto Escalado entre zonas&lt;/div&gt;" style="text;html=1;align=center;verticalAlign=middle;whiteSpace=wrap;rounded=0;fontSize=20;" vertex="1" parent="0beyIHqzRv0S4wK59_IB-1">
          <mxGeometry x="596" y="20" width="270" height="80" as="geometry" />
        </mxCell>
        <mxCell id="0beyIHqzRv0S4wK59_IB-14" value="Route53" style="outlineConnect=0;dashed=0;verticalLabelPosition=middle;verticalAlign=middle;align=center;html=1;shape=mxgraph.aws3.hosted_zone;fillColor=#6a00ff;strokeColor=#3700CC;labelPosition=center;fontColor=#ffffff;" vertex="1" parent="0beyIHqzRv0S4wK59_IB-1">
          <mxGeometry x="370" y="359" width="63" height="64.5" as="geometry" />
        </mxCell>
        <mxCell id="0beyIHqzRv0S4wK59_IB-16" value="Consulta DNS&lt;div&gt;api.whattimeisit.com&lt;/div&gt;&lt;div&gt;Registro Alias&lt;/div&gt;&lt;div&gt;TTL 1H&lt;/div&gt;" style="text;html=1;align=right;verticalAlign=middle;whiteSpace=wrap;rounded=0;fontSize=14;" vertex="1" parent="0beyIHqzRv0S4wK59_IB-1">
          <mxGeometry x="230" y="272" width="150" height="69" as="geometry" />
        </mxCell>
        <mxCell id="0beyIHqzRv0S4wK59_IB-17" value="" style="group" vertex="1" connectable="0" parent="0beyIHqzRv0S4wK59_IB-1">
          <mxGeometry x="9" y="302" width="145" height="237" as="geometry" />
        </mxCell>
        <mxCell id="0beyIHqzRv0S4wK59_IB-18" value="" style="outlineConnect=0;dashed=0;verticalLabelPosition=bottom;verticalAlign=top;align=center;html=1;shape=mxgraph.aws3.user;fillColor=#D2D3D3;gradientColor=none;" vertex="1" parent="0beyIHqzRv0S4wK59_IB-17">
          <mxGeometry x="88" y="82" width="45" height="63" as="geometry" />
        </mxCell>
        <mxCell id="0beyIHqzRv0S4wK59_IB-19" value="" style="outlineConnect=0;dashed=0;verticalLabelPosition=bottom;verticalAlign=top;align=center;html=1;shape=mxgraph.aws3.users;fillColor=#D2D3D3;gradientColor=none;" vertex="1" parent="0beyIHqzRv0S4wK59_IB-17">
          <mxGeometry x="78" width="66" height="63" as="geometry" />
        </mxCell>
        <mxCell id="0beyIHqzRv0S4wK59_IB-20" value="" style="outlineConnect=0;dashed=0;verticalLabelPosition=bottom;verticalAlign=top;align=center;html=1;shape=mxgraph.aws3.users;fillColor=#D2D3D3;gradientColor=none;" vertex="1" parent="0beyIHqzRv0S4wK59_IB-17">
          <mxGeometry x="79" y="174" width="66" height="63" as="geometry" />
        </mxCell>
        <mxCell id="0beyIHqzRv0S4wK59_IB-21" value="" style="outlineConnect=0;dashed=0;verticalLabelPosition=bottom;verticalAlign=top;align=center;html=1;shape=mxgraph.aws3.users;fillColor=#D2D3D3;gradientColor=none;" vertex="1" parent="0beyIHqzRv0S4wK59_IB-17">
          <mxGeometry y="94" width="66" height="63" as="geometry" />
        </mxCell>
        <mxCell id="0beyIHqzRv0S4wK59_IB-22" value="" style="outlineConnect=0;dashed=0;verticalLabelPosition=bottom;verticalAlign=top;align=center;html=1;shape=mxgraph.aws3.users;fillColor=#D2D3D3;gradientColor=none;" vertex="1" parent="0beyIHqzRv0S4wK59_IB-17">
          <mxGeometry x="1" y="2" width="66" height="63" as="geometry" />
        </mxCell>
        <mxCell id="0beyIHqzRv0S4wK59_IB-23" value="" style="outlineConnect=0;dashed=0;verticalLabelPosition=bottom;verticalAlign=top;align=center;html=1;shape=mxgraph.aws3.users;fillColor=#D2D3D3;gradientColor=none;" vertex="1" parent="0beyIHqzRv0S4wK59_IB-17">
          <mxGeometry x="2" y="174" width="66" height="63" as="geometry" />
        </mxCell>
        <mxCell id="0beyIHqzRv0S4wK59_IB-24" value="ELB" style="outlineConnect=0;dashed=0;verticalLabelPosition=bottom;verticalAlign=top;align=center;html=1;shape=mxgraph.aws3.application_load_balancer;fillColor=#F58536;gradientColor=none;" vertex="1" parent="0beyIHqzRv0S4wK59_IB-1">
          <mxGeometry x="487" y="419" width="69" height="72" as="geometry" />
        </mxCell>
        <mxCell id="0beyIHqzRv0S4wK59_IB-25" value="llamada a DNS" style="endArrow=classic;html=1;rounded=0;labelPosition=center;verticalLabelPosition=top;align=center;verticalAlign=bottom;" edge="1" parent="0beyIHqzRv0S4wK59_IB-1">
          <mxGeometry width="50" height="50" relative="1" as="geometry">
            <mxPoint x="150" y="390" as="sourcePoint" />
            <mxPoint x="370" y="390" as="targetPoint" />
          </mxGeometry>
        </mxCell>
        <mxCell id="0beyIHqzRv0S4wK59_IB-26" value="" style="endArrow=classic;html=1;rounded=0;startArrow=classicThin;startFill=1;" edge="1" parent="0beyIHqzRv0S4wK59_IB-1">
          <mxGeometry width="50" height="50" relative="1" as="geometry">
            <mxPoint x="562" y="454.17" as="sourcePoint" />
            <mxPoint x="672" y="454.17" as="targetPoint" />
          </mxGeometry>
        </mxCell>
        <mxCell id="B5-pGLR1trzav4rcPeYo-1" value="" style="group" vertex="1" connectable="0" parent="0beyIHqzRv0S4wK59_IB-1">
          <mxGeometry x="600" y="250" width="212" height="350" as="geometry" />
        </mxCell>
        <mxCell id="0beyIHqzRv0S4wK59_IB-5" value="zone 1" style="rounded=1;arcSize=10;dashed=1;strokeColor=#F59D56;fillColor=none;gradientColor=none;dashPattern=8 4;strokeWidth=2;labelPosition=center;verticalLabelPosition=bottom;align=center;verticalAlign=top;" vertex="1" parent="B5-pGLR1trzav4rcPeYo-1">
          <mxGeometry width="212" height="350" as="geometry" />
        </mxCell>
        <mxCell id="0beyIHqzRv0S4wK59_IB-6" value="" style="rounded=1;arcSize=10;dashed=0;fillColor=none;gradientColor=none;strokeWidth=2;" vertex="1" parent="B5-pGLR1trzav4rcPeYo-1">
          <mxGeometry x="25" y="30" width="164" height="280" as="geometry" />
        </mxCell>
        <mxCell id="0beyIHqzRv0S4wK59_IB-7" value="" style="dashed=0;html=1;shape=mxgraph.aws3.virtual_private_cloud;fillColor=#F58536;gradientColor=none;dashed=0;" vertex="1" parent="B5-pGLR1trzav4rcPeYo-1">
          <mxGeometry x="10" y="22" width="52" height="36" as="geometry" />
        </mxCell>
        <mxCell id="0beyIHqzRv0S4wK59_IB-8" value="Grupo de Seguridad 1" style="rounded=1;arcSize=10;dashed=1;strokeColor=#ff0000;fillColor=none;gradientColor=none;dashPattern=8 4;strokeWidth=2;labelPosition=center;verticalLabelPosition=bottom;align=center;verticalAlign=top;" vertex="1" parent="B5-pGLR1trzav4rcPeYo-1">
          <mxGeometry x="49" y="71" width="123" height="199" as="geometry" />
        </mxCell>
        <mxCell id="0beyIHqzRv0S4wK59_IB-9" value="EC2 instance 1 - T2" style="outlineConnect=0;dashed=0;verticalLabelPosition=bottom;verticalAlign=top;align=center;html=1;shape=mxgraph.aws3.instance;fillColor=#F58534;gradientColor=none;" vertex="1" parent="B5-pGLR1trzav4rcPeYo-1">
          <mxGeometry x="90.5" y="110" width="41" height="41" as="geometry" />
        </mxCell>
        <mxCell id="0beyIHqzRv0S4wK59_IB-15" value="EC2 instance 2 - T2" style="outlineConnect=0;dashed=0;verticalLabelPosition=bottom;verticalAlign=top;align=center;html=1;shape=mxgraph.aws3.instance;fillColor=#F58534;gradientColor=none;" vertex="1" parent="B5-pGLR1trzav4rcPeYo-1">
          <mxGeometry x="92.5" y="200" width="39" height="39" as="geometry" />
        </mxCell>
        <mxCell id="B5-pGLR1trzav4rcPeYo-8" value="" style="endArrow=classic;html=1;rounded=0;startArrow=classicThin;startFill=1;" edge="1" parent="B5-pGLR1trzav4rcPeYo-1">
          <mxGeometry width="50" height="50" relative="1" as="geometry">
            <mxPoint x="-49.5" y="180" as="sourcePoint" />
            <mxPoint x="270.5" y="180" as="targetPoint" />
          </mxGeometry>
        </mxCell>
        <mxCell id="B5-pGLR1trzav4rcPeYo-2" value="" style="group" vertex="1" connectable="0" parent="0beyIHqzRv0S4wK59_IB-1">
          <mxGeometry x="840" y="250" width="212" height="350" as="geometry" />
        </mxCell>
        <mxCell id="B5-pGLR1trzav4rcPeYo-3" value="zone 2" style="rounded=1;arcSize=10;dashed=1;strokeColor=#F59D56;fillColor=none;gradientColor=none;dashPattern=8 4;strokeWidth=2;labelPosition=center;verticalLabelPosition=bottom;align=center;verticalAlign=top;" vertex="1" parent="B5-pGLR1trzav4rcPeYo-2">
          <mxGeometry width="212" height="350" as="geometry" />
        </mxCell>
        <mxCell id="B5-pGLR1trzav4rcPeYo-4" value="" style="rounded=1;arcSize=10;dashed=0;fillColor=none;gradientColor=none;strokeWidth=2;" vertex="1" parent="B5-pGLR1trzav4rcPeYo-2">
          <mxGeometry x="25" y="30" width="164" height="280" as="geometry" />
        </mxCell>
        <mxCell id="B5-pGLR1trzav4rcPeYo-5" value="" style="dashed=0;html=1;shape=mxgraph.aws3.virtual_private_cloud;fillColor=#F58536;gradientColor=none;dashed=0;" vertex="1" parent="B5-pGLR1trzav4rcPeYo-2">
          <mxGeometry x="10" y="22" width="52" height="36" as="geometry" />
        </mxCell>
        <mxCell id="B5-pGLR1trzav4rcPeYo-6" value="Grupo de Seguridad 1" style="rounded=1;arcSize=10;dashed=1;strokeColor=#ff0000;fillColor=none;gradientColor=none;dashPattern=8 4;strokeWidth=2;labelPosition=center;verticalLabelPosition=bottom;align=center;verticalAlign=top;" vertex="1" parent="B5-pGLR1trzav4rcPeYo-2">
          <mxGeometry x="49" y="71" width="123" height="199" as="geometry" />
        </mxCell>
        <mxCell id="0beyIHqzRv0S4wK59_IB-10" value="EC2 instance 3 - T2" style="outlineConnect=0;dashed=0;verticalLabelPosition=bottom;verticalAlign=top;align=center;html=1;shape=mxgraph.aws3.instance;fillColor=#F58534;gradientColor=none;" vertex="1" parent="B5-pGLR1trzav4rcPeYo-2">
          <mxGeometry x="91.5" y="132" width="40" height="40" as="geometry" />
        </mxCell>
      </root>
    </mxGraphModel>
  </diagram>
</mxfile>
